<svg width="600" height="376" xmlns="http://www.w3.org/2000/svg"> <rect width="100%" height="100%" fill="#FEFEFE" />
<line x1="70" y1="256" x2="530" y2="256" stroke="#9f9f9f" stroke-width="1" />
<rect x="70" y="87" width="460" height="169" fill="#FEFEFE" />
<text text-anchor="middle" x="300.0" y="20" font-family="'Helvetica Neue', Arial, sans-serif" font-weight="bold" font-size="22" fill="#000000">The number of movies Will Smith appeared in</text>
<text text-anchor="middle" x="300.0" y="42" font-family="'Helvetica Neue', Arial, sans-serif" font-size="14" fill="#000000">correlates with</text>
<text text-anchor="middle" x="300.0" y="68" font-family="'Helvetica Neue', Arial, sans-serif" font-weight="bold" font-size="22" fill="#ba0f27">Electricity generation in Kosovo</text>
<text text-anchor="start" x="23" y="301.3333333333333" font-family="'Helvetica Neue', Arial, sans-serif" font-size="14" fill="#9f9f9f">The number of movies Will Smith appeared in &#183; Source: The Movie DB</text>
<text text-anchor="start" x="23" y="324.66666666666663" font-family="'Helvetica Neue', Arial, sans-serif" font-size="14" fill="#9f9f9f">Total electricity generation in Kosovo in billion kWh &#183; Source: Energy</text>
<text text-anchor="start" x="23" y="340.66666666666663" font-family="'Helvetica Neue', Arial, sans-serif" font-size="14" fill="#9f9f9f">Information Administration</text>
<text text-anchor="start" x="23" y="363.99999999999994" font-family="'Helvetica Neue', Arial, sans-serif" font-size="14" fill="#9f9f9f">2008-2021, r=0.849, r&#178;=0.720, p&lt;0.01  &#183;  tylervigen.com/spurious/correlation/5860</text>
<polyline points="5,296.66666666666663 20,296.66666666666663" style="fill:none;stroke:#000000;stroke-width:2.8" stroke-dasharray="3,1" />
<polygon points="1.7000000000000002,296.66666666666663 5,293.3666666666666 8.3,296.66666666666663 5,299.96666666666664" stroke="#F7F7F7" stroke-width="2.75" fill="#F7F7F7"  />
<polygon points="1.7000000000000002,296.66666666666663 5,293.3666666666666 8.3,296.66666666666663 5,299.96666666666664" stroke="#000000" stroke-width="2.75" fill="#000000"  />
<polyline points="5,319.99999999999994 20,319.99999999999994" style="fill:none;stroke:#ba0f27;stroke-width:2.8" />
<circle cx="5" cy="319.99999999999994" r="2.75" stroke="#F7F7F7" stroke-width="2.75" fill="#F7F7F7" />
<circle cx="5" cy="319.99999999999994" r="2.75" stroke="#ba0f27" stroke-width="2.75" fill="#ba0f27"  />
<text x="5" y="176.5" transform="rotate(270 5 171.5)" text-anchor="middle" fill="#000000" font-family="'Helvetica Neue', Arial, sans-serif" font-size="14" dominant-baseline="central">Movie appearances</text>
<text x="171.5" y="-389" transform="rotate(90 100 100)" text-anchor="middle" fill="#ba0f27" font-family="'Helvetica Neue', Arial, sans-serif" font-size="14" dominant-baseline="central">Billion kWh</text>
<line x1="71" y1="94.75" x2="528" y2="94.75" stroke="#F3F3F3" stroke-width="1" fill="#FEFEFE" />
<text text-anchor="end" x="62" y="99.41666666666667" font-family="'Helvetica Neue', Arial, sans-serif" font-size="12" fill="#000000">7.0</text>
<text text-anchor="start" x="538" y="99.41666666666667" font-family="'Helvetica Neue', Arial, sans-serif" font-size="12" fill="#ba0f27">6.7</text>
<line x1="71" y1="133.125" x2="528" y2="133.125" stroke="#F3F3F3" stroke-width="1" fill="#FEFEFE" />
<text text-anchor="end" x="62" y="137.79166666666666" font-family="'Helvetica Neue', Arial, sans-serif" font-size="12">5.2</text>
<text text-anchor="start" x="538" y="137.79166666666666" font-family="'Helvetica Neue', Arial, sans-serif" font-size="12" fill="#ba0f27">6.2</text>
<line x1="71" y1="171.5" x2="528" y2="171.5" stroke="#F3F3F3" stroke-width="1" fill="#FEFEFE" />
<text text-anchor="end" x="62" y="176.16666666666666" font-family="'Helvetica Neue', Arial, sans-serif" font-size="12">3.5</text>
<text text-anchor="start" x="538" y="176.16666666666666" font-family="'Helvetica Neue', Arial, sans-serif" font-size="12" fill="#ba0f27">5.7</text>
<line x1="71" y1="209.875" x2="528" y2="209.875" stroke="#F3F3F3" stroke-width="1" fill="#FEFEFE" />
<text text-anchor="end" x="62" y="214.54166666666666" font-family="'Helvetica Neue', Arial, sans-serif" font-size="12">1.8</text>
<text text-anchor="start" x="538" y="214.54166666666666" font-family="'Helvetica Neue', Arial, sans-serif" font-size="12" fill="#ba0f27">5.2</text>
<line x1="71" y1="248.25" x2="528" y2="248.25" stroke="#F3F3F3" stroke-width="1" fill="#FEFEFE" />
<text text-anchor="end" x="62" y="252.91666666666666" font-family="'Helvetica Neue', Arial, sans-serif" font-size="12">0</text>
<text text-anchor="start" x="538" y="252.91666666666666" font-family="'Helvetica Neue', Arial, sans-serif" font-size="12" fill="#ba0f27">4.7</text>
<polyline points="77.75,256 77.75,262" style="fill:none;stroke:#000000;stroke-width:1" />
<polyline points="146.1346153846154,256 146.1346153846154,262" style="fill:none;stroke:#000000;stroke-width:1" />
<polyline points="214.51923076923077,256 214.51923076923077,262" style="fill:none;stroke:#000000;stroke-width:1" />
<polyline points="282.9038461538462,256 282.9038461538462,262" style="fill:none;stroke:#000000;stroke-width:1" />
<polyline points="351.28846153846155,256 351.28846153846155,262" style="fill:none;stroke:#000000;stroke-width:1" />
<polyline points="419.6730769230769,256 419.6730769230769,262" style="fill:none;stroke:#000000;stroke-width:1" />
<polyline points="488.0576923076923,256 488.0576923076923,262" style="fill:none;stroke:#000000;stroke-width:1" />
<text text-anchor="middle" x="77.75" y="277" font-weight="bold" font-family="'Helvetica Neue', Arial, sans-serif" font-size="14">2008</text>
<text text-anchor="middle" x="146.1346153846154" y="277" font-weight="bold" font-family="'Helvetica Neue', Arial, sans-serif" font-size="14">2010</text>
<text text-anchor="middle" x="214.51923076923077" y="277" font-weight="bold" font-family="'Helvetica Neue', Arial, sans-serif" font-size="14">2012</text>
<text text-anchor="middle" x="282.9038461538462" y="277" font-weight="bold" font-family="'Helvetica Neue', Arial, sans-serif" font-size="14">2014</text>
<text text-anchor="middle" x="351.28846153846155" y="277" font-weight="bold" font-family="'Helvetica Neue', Arial, sans-serif" font-size="14">2016</text>
<text text-anchor="middle" x="419.6730769230769" y="277" font-weight="bold" font-family="'Helvetica Neue', Arial, sans-serif" font-size="14">2018</text>
<text text-anchor="middle" x="488.0576923076923" y="277" font-weight="bold" font-family="'Helvetica Neue', Arial, sans-serif" font-size="14">2020</text>
<polyline points="77.75,235.2215616657373 111.9423076923077,248.25" style="fill:none;stroke:#ba0f27;stroke-width:2.8"  />
<polyline points="111.9423076923077,248.25 146.1346153846154,234.51408716549307" style="fill:none;stroke:#ba0f27;stroke-width:2.8"  />
<polyline points="146.1346153846154,234.51408716549307 180.3269230769231,189.37660807603294" style="fill:none;stroke:#ba0f27;stroke-width:2.8"  />
<polyline points="180.3269230769231,189.37660807603294 214.51923076923077,179.30683719139995" style="fill:none;stroke:#ba0f27;stroke-width:2.8"  />
<polyline points="214.51923076923077,179.30683719139995 248.71153846153845,137.6537078890101" style="fill:none;stroke:#ba0f27;stroke-width:2.8"  />
<polyline points="248.71153846153845,137.6537078890101 282.9038461538462,215.23199843078424" style="fill:none;stroke:#ba0f27;stroke-width:2.8"  />
<polyline points="282.9038461538462,215.23199843078424 317.09615384615387,166.57532605638318" style="fill:none;stroke:#ba0f27;stroke-width:2.8"  />
<polyline points="317.09615384615387,166.57532605638318 351.28846153846155,149.92316394356746" style="fill:none;stroke:#ba0f27;stroke-width:2.8"  />
<polyline points="351.28846153846155,149.92316394356746 385.4807692307692,154.69293581512864" style="fill:none;stroke:#ba0f27;stroke-width:2.8"  />
<polyline points="385.4807692307692,154.69293581512864 419.6730769230769,155.15423342824295" style="fill:none;stroke:#ba0f27;stroke-width:2.8"  />
<polyline points="419.6730769230769,155.15423342824295 453.86538461538464,122.32256882590097" style="fill:none;stroke:#ba0f27;stroke-width:2.8"  />
<polyline points="453.86538461538464,122.32256882590097 488.0576923076923,94.75" style="fill:none;stroke:#ba0f27;stroke-width:2.8"  />
<polyline points="488.0576923076923,94.75 522.25,122.96641606916393" style="fill:none;stroke:#ba0f27;stroke-width:2.8"  />
<circle cx="77.75" cy="235.2215616657373" r="2.75" stroke="#F7F7F7" stroke-width="2.75" fill="#F7F7F7" />
<circle cx="77.75" cy="235.2215616657373" r="2.75" stroke="#ba0f27" stroke-width="2.75" fill="#ba0f27"  />
<circle cx="111.9423076923077" cy="248.25" r="2.75" stroke="#F7F7F7" stroke-width="2.75" fill="#F7F7F7" />
<circle cx="111.9423076923077" cy="248.25" r="2.75" stroke="#ba0f27" stroke-width="2.75" fill="#ba0f27"  />
<circle cx="146.1346153846154" cy="234.51408716549307" r="2.75" stroke="#F7F7F7" stroke-width="2.75" fill="#F7F7F7" />
<circle cx="146.1346153846154" cy="234.51408716549307" r="2.75" stroke="#ba0f27" stroke-width="2.75" fill="#ba0f27"  />
<circle cx="180.3269230769231" cy="189.37660807603294" r="2.75" stroke="#F7F7F7" stroke-width="2.75" fill="#F7F7F7" />
<circle cx="180.3269230769231" cy="189.37660807603294" r="2.75" stroke="#ba0f27" stroke-width="2.75" fill="#ba0f27"  />
<circle cx="214.51923076923077" cy="179.30683719139995" r="2.75" stroke="#F7F7F7" stroke-width="2.75" fill="#F7F7F7" />
<circle cx="214.51923076923077" cy="179.30683719139995" r="2.75" stroke="#ba0f27" stroke-width="2.75" fill="#ba0f27"  />
<circle cx="248.71153846153845" cy="137.6537078890101" r="2.75" stroke="#F7F7F7" stroke-width="2.75" fill="#F7F7F7" />
<circle cx="248.71153846153845" cy="137.6537078890101" r="2.75" stroke="#ba0f27" stroke-width="2.75" fill="#ba0f27"  />
<circle cx="282.9038461538462" cy="215.23199843078424" r="2.75" stroke="#F7F7F7" stroke-width="2.75" fill="#F7F7F7" />
<circle cx="282.9038461538462" cy="215.23199843078424" r="2.75" stroke="#ba0f27" stroke-width="2.75" fill="#ba0f27"  />
<circle cx="317.09615384615387" cy="166.57532605638318" r="2.75" stroke="#F7F7F7" stroke-width="2.75" fill="#F7F7F7" />
<circle cx="317.09615384615387" cy="166.57532605638318" r="2.75" stroke="#ba0f27" stroke-width="2.75" fill="#ba0f27"  />
<circle cx="351.28846153846155" cy="149.92316394356746" r="2.75" stroke="#F7F7F7" stroke-width="2.75" fill="#F7F7F7" />
<circle cx="351.28846153846155" cy="149.92316394356746" r="2.75" stroke="#ba0f27" stroke-width="2.75" fill="#ba0f27"  />
<circle cx="385.4807692307692" cy="154.69293581512864" r="2.75" stroke="#F7F7F7" stroke-width="2.75" fill="#F7F7F7" />
<circle cx="385.4807692307692" cy="154.69293581512864" r="2.75" stroke="#ba0f27" stroke-width="2.75" fill="#ba0f27"  />
<circle cx="419.6730769230769" cy="155.15423342824295" r="2.75" stroke="#F7F7F7" stroke-width="2.75" fill="#F7F7F7" />
<circle cx="419.6730769230769" cy="155.15423342824295" r="2.75" stroke="#ba0f27" stroke-width="2.75" fill="#ba0f27"  />
<circle cx="453.86538461538464" cy="122.32256882590097" r="2.75" stroke="#F7F7F7" stroke-width="2.75" fill="#F7F7F7" />
<circle cx="453.86538461538464" cy="122.32256882590097" r="2.75" stroke="#ba0f27" stroke-width="2.75" fill="#ba0f27"  />
<circle cx="488.0576923076923" cy="94.75" r="2.75" stroke="#F7F7F7" stroke-width="2.75" fill="#F7F7F7" />
<circle cx="488.0576923076923" cy="94.75" r="2.75" stroke="#ba0f27" stroke-width="2.75" fill="#ba0f27"  />
<circle cx="522.25" cy="122.96641606916393" r="2.75" stroke="#F7F7F7" stroke-width="2.75" fill="#F7F7F7" />
<circle cx="522.25" cy="122.96641606916393" r="2.75" stroke="#ba0f27" stroke-width="2.75" fill="#ba0f27"  />
<polyline points="77.75,204.39285714285714 111.9423076923077,248.25" style="fill:none;stroke:#000000;stroke-width:2.8" stroke-dasharray="3,1"  />
<polyline points="111.9423076923077,248.25 146.1346153846154,248.25" style="fill:none;stroke:#000000;stroke-width:2.8" stroke-dasharray="3,1"  />
<polyline points="146.1346153846154,248.25 180.3269230769231,226.32142857142856" style="fill:none;stroke:#000000;stroke-width:2.8" stroke-dasharray="3,1"  />
<polyline points="180.3269230769231,226.32142857142856 214.51923076923077,226.32142857142856" style="fill:none;stroke:#000000;stroke-width:2.8" stroke-dasharray="3,1"  />
<polyline points="214.51923076923077,226.32142857142856 248.71153846153845,116.67857142857143" style="fill:none;stroke:#000000;stroke-width:2.8" stroke-dasharray="3,1"  />
<polyline points="248.71153846153845,116.67857142857143 282.9038461538462,226.32142857142856" style="fill:none;stroke:#000000;stroke-width:2.8" stroke-dasharray="3,1"  />
<polyline points="282.9038461538462,226.32142857142856 317.09615384615387,182.46428571428572" style="fill:none;stroke:#000000;stroke-width:2.8" stroke-dasharray="3,1"  />
<polyline points="317.09615384615387,182.46428571428572 351.28846153846155,160.53571428571428" style="fill:none;stroke:#000000;stroke-width:2.8" stroke-dasharray="3,1"  />
<polyline points="351.28846153846155,160.53571428571428 385.4807692307692,226.32142857142856" style="fill:none;stroke:#000000;stroke-width:2.8" stroke-dasharray="3,1"  />
<polyline points="385.4807692307692,226.32142857142856 419.6730769230769,182.46428571428572" style="fill:none;stroke:#000000;stroke-width:2.8" stroke-dasharray="3,1"  />
<polyline points="419.6730769230769,182.46428571428572 453.86538461538464,116.67857142857143" style="fill:none;stroke:#000000;stroke-width:2.8" stroke-dasharray="3,1"  />
<polyline points="453.86538461538464,116.67857142857143 488.0576923076923,94.75" style="fill:none;stroke:#000000;stroke-width:2.8" stroke-dasharray="3,1"  />
<polyline points="488.0576923076923,94.75 522.25,160.53571428571428" style="fill:none;stroke:#000000;stroke-width:2.8" stroke-dasharray="3,1"  />
<polygon points="74.45,204.39285714285714 77.75,201.09285714285713 81.05,204.39285714285714 77.75,207.69285714285715" stroke="#F7F7F7" stroke-width="2.75" fill="#F7F7F7"  />
<polygon points="74.45,204.39285714285714 77.75,201.09285714285713 81.05,204.39285714285714 77.75,207.69285714285715" stroke="#000000" stroke-width="2.75" fill="#000000"  />
<polygon points="108.6423076923077,248.25 111.9423076923077,244.95 115.24230769230769,248.25 111.9423076923077,251.55" stroke="#F7F7F7" stroke-width="2.75" fill="#F7F7F7"  />
<polygon points="108.6423076923077,248.25 111.9423076923077,244.95 115.24230769230769,248.25 111.9423076923077,251.55" stroke="#000000" stroke-width="2.75" fill="#000000"  />
<polygon points="142.83461538461538,248.25 146.1346153846154,244.95 149.4346153846154,248.25 146.1346153846154,251.55" stroke="#F7F7F7" stroke-width="2.75" fill="#F7F7F7"  />
<polygon points="142.83461538461538,248.25 146.1346153846154,244.95 149.4346153846154,248.25 146.1346153846154,251.55" stroke="#000000" stroke-width="2.75" fill="#000000"  />
<polygon points="177.02692307692308,226.32142857142856 180.3269230769231,223.02142857142854 183.6269230769231,226.32142857142856 180.3269230769231,229.62142857142857" stroke="#F7F7F7" stroke-width="2.75" fill="#F7F7F7"  />
<polygon points="177.02692307692308,226.32142857142856 180.3269230769231,223.02142857142854 183.6269230769231,226.32142857142856 180.3269230769231,229.62142857142857" stroke="#000000" stroke-width="2.75" fill="#000000"  />
<polygon points="211.21923076923076,226.32142857142856 214.51923076923077,223.02142857142854 217.81923076923078,226.32142857142856 214.51923076923077,229.62142857142857" stroke="#F7F7F7" stroke-width="2.75" fill="#F7F7F7"  />
<polygon points="211.21923076923076,226.32142857142856 214.51923076923077,223.02142857142854 217.81923076923078,226.32142857142856 214.51923076923077,229.62142857142857" stroke="#000000" stroke-width="2.75" fill="#000000"  />
<polygon points="245.41153846153844,116.67857142857143 248.71153846153845,113.37857142857143 252.01153846153846,116.67857142857143 248.71153846153845,119.97857142857143" stroke="#F7F7F7" stroke-width="2.75" fill="#F7F7F7"  />
<polygon points="245.41153846153844,116.67857142857143 248.71153846153845,113.37857142857143 252.01153846153846,116.67857142857143 248.71153846153845,119.97857142857143" stroke="#000000" stroke-width="2.75" fill="#000000"  />
<polygon points="279.6038461538462,226.32142857142856 282.9038461538462,223.02142857142854 286.2038461538462,226.32142857142856 282.9038461538462,229.62142857142857" stroke="#F7F7F7" stroke-width="2.75" fill="#F7F7F7"  />
<polygon points="279.6038461538462,226.32142857142856 282.9038461538462,223.02142857142854 286.2038461538462,226.32142857142856 282.9038461538462,229.62142857142857" stroke="#000000" stroke-width="2.75" fill="#000000"  />
<polygon points="313.79615384615386,182.46428571428572 317.09615384615387,179.1642857142857 320.3961538461539,182.46428571428572 317.09615384615387,185.76428571428573" stroke="#F7F7F7" stroke-width="2.75" fill="#F7F7F7"  />
<polygon points="313.79615384615386,182.46428571428572 317.09615384615387,179.1642857142857 320.3961538461539,182.46428571428572 317.09615384615387,185.76428571428573" stroke="#000000" stroke-width="2.75" fill="#000000"  />
<polygon points="347.98846153846154,160.53571428571428 351.28846153846155,157.23571428571427 354.58846153846156,160.53571428571428 351.28846153846155,163.8357142857143" stroke="#F7F7F7" stroke-width="2.75" fill="#F7F7F7"  />
<polygon points="347.98846153846154,160.53571428571428 351.28846153846155,157.23571428571427 354.58846153846156,160.53571428571428 351.28846153846155,163.8357142857143" stroke="#000000" stroke-width="2.75" fill="#000000"  />
<polygon points="382.1807692307692,226.32142857142856 385.4807692307692,223.02142857142854 388.78076923076924,226.32142857142856 385.4807692307692,229.62142857142857" stroke="#F7F7F7" stroke-width="2.75" fill="#F7F7F7"  />
<polygon points="382.1807692307692,226.32142857142856 385.4807692307692,223.02142857142854 388.78076923076924,226.32142857142856 385.4807692307692,229.62142857142857" stroke="#000000" stroke-width="2.75" fill="#000000"  />
<polygon points="416.3730769230769,182.46428571428572 419.6730769230769,179.1642857142857 422.9730769230769,182.46428571428572 419.6730769230769,185.76428571428573" stroke="#F7F7F7" stroke-width="2.75" fill="#F7F7F7"  />
<polygon points="416.3730769230769,182.46428571428572 419.6730769230769,179.1642857142857 422.9730769230769,182.46428571428572 419.6730769230769,185.76428571428573" stroke="#000000" stroke-width="2.75" fill="#000000"  />
<polygon points="450.56538461538463,116.67857142857143 453.86538461538464,113.37857142857143 457.16538461538465,116.67857142857143 453.86538461538464,119.97857142857143" stroke="#F7F7F7" stroke-width="2.75" fill="#F7F7F7"  />
<polygon points="450.56538461538463,116.67857142857143 453.86538461538464,113.37857142857143 457.16538461538465,116.67857142857143 453.86538461538464,119.97857142857143" stroke="#000000" stroke-width="2.75" fill="#000000"  />
<polygon points="484.7576923076923,94.75 488.0576923076923,91.45 491.35769230769233,94.75 488.0576923076923,98.05" stroke="#F7F7F7" stroke-width="2.75" fill="#F7F7F7"  />
<polygon points="484.7576923076923,94.75 488.0576923076923,91.45 491.35769230769233,94.75 488.0576923076923,98.05" stroke="#000000" stroke-width="2.75" fill="#000000"  />
<polygon points="518.95,160.53571428571428 522.25,157.23571428571427 525.55,160.53571428571428 522.25,163.8357142857143" stroke="#F7F7F7" stroke-width="2.75" fill="#F7F7F7"  />
<polygon points="518.95,160.53571428571428 522.25,157.23571428571427 525.55,160.53571428571428 522.25,163.8357142857143" stroke="#000000" stroke-width="2.75" fill="#000000"  />
</svg>